# xmcd CD database file
#
# Track frame offsets:
#	150
#	19601
#	37122
#	53301
#	59058
#	75034
#	91192
#	110999
#	130603
#	144289
#	158724
#	173204
#	192615
#
# Disc length: 2783 seconds
#
# Revision: 15
# Processed by: cddbd v1.5.2PL0 Copyright (c) Steve Scherf et al.
# Submitted via: CDex 1.70beta3
#
DISCID=a20add0d
DTITLE=YUI - I LOVED YESTERDAY
DYEAR=2008
DGENRE=JPop
TTITLE0=Laugh away
TTITLE1=My Generation
TTITLE2=Find me
TTITLE3=No way
TTITLE4=Namidairo
TTITLE5=Daydreamer
TTITLE6=Love is all
TTITLE7=I will love you
TTITLE8=We will go
TTITLE9=OH YEAH
TTITLE10=My friend
TTITLE11=LOVE and TRUTH
TTITLE12=Am I wrong?
EXTD=YEAR: 2008
EXTT0=
EXTT1=
EXTT2=
EXTT3=
EXTT4=
EXTT5=
EXTT6=
EXTT7=
EXTT8=
EXTT9=
EXTT10=
EXTT11=
EXTT12=
PLAYORDER=
